<svg width="20" height="20" viewBox="0 0 20 20" fill="none" xmlns="http://www.w3.org/2000/svg">
<path d="M9.16675 10.8333V13.3333C9.16675 13.5695 9.24661 13.7674 9.40633 13.9271C9.56605 14.0868 9.76397 14.1667 10.0001 14.1667C10.2362 14.1667 10.4341 14.0868 10.5938 13.9271C10.7536 13.7674 10.8334 13.5695 10.8334 13.3333V10.8333H13.3334C13.5695 10.8333 13.7674 10.7535 13.9272 10.5938C14.0869 10.434 14.1667 10.2361 14.1667 10C14.1667 9.76389 14.0869 9.56598 13.9272 9.40626C13.7674 9.24653 13.5695 9.16667 13.3334 9.16667H10.8334V6.66667C10.8334 6.43056 10.7536 6.23264 10.5938 6.07292C10.4341 5.9132 10.2362 5.83334 10.0001 5.83334C9.76397 5.83334 9.56605 5.9132 9.40633 6.07292C9.24661 6.23264 9.16675 6.43056 9.16675 6.66667V9.16667H6.66675C6.43064 9.16667 6.23272 9.24653 6.073 9.40626C5.91328 9.56598 5.83342 9.76389 5.83342 10C5.83342 10.2361 5.91328 10.434 6.073 10.5938C6.23272 10.7535 6.43064 10.8333 6.66675 10.8333H9.16675ZM10.0001 18.3333C8.8473 18.3333 7.76397 18.1146 6.75008 17.6771C5.73619 17.2396 4.85425 16.6458 4.10425 15.8958C3.35425 15.1458 2.7605 14.2639 2.323 13.25C1.8855 12.2361 1.66675 11.1528 1.66675 10C1.66675 8.84723 1.8855 7.76389 2.323 6.75001C2.7605 5.73612 3.35425 4.85417 4.10425 4.10417C4.85425 3.35417 5.73619 2.76042 6.75008 2.32292C7.76397 1.88542 8.8473 1.66667 10.0001 1.66667C11.1529 1.66667 12.2362 1.88542 13.2501 2.32292C14.264 2.76042 15.1459 3.35417 15.8959 4.10417C16.6459 4.85417 17.2397 5.73612 17.6772 6.75001C18.1147 7.76389 18.3334 8.84723 18.3334 10C18.3334 11.1528 18.1147 12.2361 17.6772 13.25C17.2397 14.2639 16.6459 15.1458 15.8959 15.8958C15.1459 16.6458 14.264 17.2396 13.2501 17.6771C12.2362 18.1146 11.1529 18.3333 10.0001 18.3333Z" fill="white"/>
</svg>
