<svg width="16" height="18" viewBox="0 0 16 18" fill="none" xmlns="http://www.w3.org/2000/svg">
<path d="M3 18C2.45 18 1.97917 17.8042 1.5875 17.4125C1.19583 17.0208 1 16.55 1 16V3C0.716667 3 0.479167 2.90417 0.2875 2.7125C0.0958333 2.52083 0 2.28333 0 2C0 1.71667 0.0958333 1.47917 0.2875 1.2875C0.479167 1.09583 0.716667 1 1 1H5C5 0.716667 5.09583 0.479167 5.2875 0.2875C5.47917 0.0958333 5.71667 0 6 0H10C10.2833 0 10.5208 0.0958333 10.7125 0.2875C10.9042 0.479167 11 0.716667 11 1H15C15.2833 1 15.5208 1.09583 15.7125 1.2875C15.9042 1.47917 16 1.71667 16 2C16 2.28333 15.9042 2.52083 15.7125 2.7125C15.5208 2.90417 15.2833 3 15 3V16C15 16.55 14.8042 17.0208 14.4125 17.4125C14.0208 17.8042 13.55 18 13 18H3ZM8 10.9L9.9 12.8C10.0833 12.9833 10.3167 13.075 10.6 13.075C10.8833 13.075 11.1167 12.9833 11.3 12.8C11.4833 12.6167 11.575 12.3833 11.575 12.1C11.575 11.8167 11.4833 11.5833 11.3 11.4L9.4 9.5L11.3 7.6C11.4833 7.41667 11.575 7.18333 11.575 6.9C11.575 6.61667 11.4833 6.38333 11.3 6.2C11.1167 6.01667 10.8833 5.925 10.6 5.925C10.3167 5.925 10.0833 6.01667 9.9 6.2L8 8.1L6.1 6.2C5.91667 6.01667 5.68333 5.925 5.4 5.925C5.11667 5.925 4.88333 6.01667 4.7 6.2C4.51667 6.38333 4.425 6.61667 4.425 6.9C4.425 7.18333 4.51667 7.41667 4.7 7.6L6.6 9.5L4.7 11.4C4.51667 11.5833 4.425 11.8167 4.425 12.1C4.425 12.3833 4.51667 12.6167 4.7 12.8C4.88333 12.9833 5.11667 13.075 5.4 13.075C5.68333 13.075 5.91667 12.9833 6.1 12.8L8 10.9Z" fill="#F43528"/>
</svg>
