<?xml version="1.0" encoding="utf-8"?>
<!-- Svg Vector Icons : http://www.onlinewebfonts.com/icon -->
<!DOCTYPE svg PUBLIC "-//W3C//DTD SVG 1.1//EN" "http://www.w3.org/Graphics/SVG/1.1/DTD/svg11.dtd">
<svg version="1.1" xmlns="http://www.w3.org/2000/svg" xmlns:xlink="http://www.w3.org/1999/xlink" x="0px" y="0px" viewBox="0 0 256 256" enable-background="new 0 0 256 256" xml:space="preserve">
<metadata> Svg Vector Icons : http://www.onlinewebfonts.com/icon </metadata>
<g><g><path fill="#000000" d="M54.8,35.4c25.5-20.2,56.9-28.2,86.9-24.6c30,3.5,58.6,18.5,78.8,44c20.2,25.5,28.1,56.9,24.6,86.9c-3.5,30-18.5,58.7-44,78.8c-25.5,20.2-56.9,28.1-86.9,24.6c-30-3.5-58.7-18.5-78.8-44c-20.2-25.5-28.2-56.9-24.6-86.9C14.3,84.3,29.3,55.6,54.8,35.4L54.8,35.4z M89.3,76.3l-18.9,6.5l-18.9,6.5c-1.7,0.6-3.5-0.3-4.1-2c-0.1-0.2-0.1-0.5-0.2-0.7l0,0l-1.3-13.1l-0.4-3.9c-9.9,13.9-15.9,30-17.8,46.6c-0.6,5.4-0.8,10.9-0.6,16.4l1.8-2.7l7.2-11c1-1.5,3-1.9,4.4-0.9c0.2,0.1,0.4,0.3,0.6,0.5l0,0l13.7,14.6l13.7,14.6c0.6,0.6,0.8,1.3,0.9,2l1.2,19.9l1.2,20c0.1,1.8-1.2,3.3-3,3.4c-0.3,0-0.7,0-1-0.1l-12.7-2.2l-7.3-1.3c0.3,0.4,0.6,0.8,0.9,1.2c14.6,18.5,34.5,30.6,55.9,35.6l-4.5-6.1l-7.8-10.5c-1.1-1.4-0.7-3.4,0.7-4.5c0.2-0.1,0.4-0.3,0.6-0.4v0l18.4-7.9l18.4-7.9c0.7-0.3,1.5-0.3,2.3-0.1l19.1,5.7l19.2,5.7c1.7,0.5,2.6,2.3,2.2,4c-0.1,0.3-0.2,0.6-0.3,0.8l-6.5,11.3l-3.8,6.5c9.8-3.6,19.3-8.8,28-15.7c9.9-7.8,18-17.2,24.1-27.4l-3.2,1.1L199,185c-1.7,0.6-3.5-0.3-4-2c-0.1-0.2-0.1-0.5-0.1-0.7l0,0l-1.8-19.9l-1.8-19.9c-0.1-0.8,0.1-1.5,0.6-2.1l0,0l11.3-16.5l11.3-16.5c1-1.4,3-1.8,4.4-0.8c0.2,0.1,0.4,0.3,0.6,0.5v0l8.8,9.7l0.1,0.1c-2-17.8-8.7-35.4-20.5-50.6l0,2.1l0.1,13.1c0,1.8-1.4,3.2-3.2,3.2c-0.3,0-0.5,0-0.7-0.1l0,0l-19.5-4.4L165,75.8c-0.8-0.2-1.5-0.7-1.9-1.3L151,58.7l-12.2-15.9c-1.1-1.4-0.8-3.4,0.6-4.5c0.2-0.1,0.4-0.3,0.6-0.4l0,0l12-5.4l3.7-1.7c-5.3-1.5-10.6-2.6-16-3.2c-14.2-1.7-28.7-0.3-42.5,4.1l0.4,0.1l12.5,4c1.7,0.6,2.6,2.3,2.1,4c-0.1,0.3-0.2,0.5-0.4,0.7l-10.3,17L91,74.9C90.6,75.6,90,76.1,89.3,76.3L89.3,76.3L89.3,76.3z M104.5,92.5c-1.4,0-2.6,0.9-3,2.3l-6.3,22.4l-6.3,22.4c-0.4,1.3,0.1,2.7,1.3,3.5l19.4,12.9l19.2,12.8c1.1,0.9,2.7,0.9,3.9,0l18.3-14.4l18.3-14.4v0c1.1-0.8,1.5-2.3,1-3.6l-8.1-21.8l-8-21.7c-0.5-1.3-1.7-2.2-3.2-2.2l-23.2,1L104.5,92.5z"/></g></g>
</svg>